<?xml version="1.0" standalone="no"?>
<!DOCTYPE svg PUBLIC "-//W3C//DTD SVG 20010904//EN"
 "http://www.w3.org/TR/2001/REC-SVG-20010904/DTD/svg10.dtd">
<svg version="1.0" xmlns="http://www.w3.org/2000/svg"
 width="1024.000000pt" height="1024.000000pt" viewBox="0 0 1024.000000 1024.000000"
 preserveAspectRatio="xMidYMid meet">
<metadata>
Created by potrace 1.14, written by Peter Selinger 2001-2017
</metadata>
<g transform="translate(0.000000,1024.000000) scale(0.100000,-0.100000)"
fill="#000000" stroke="none">
<path d="M0 5120 l0 -5120 5120 0 5120 0 0 5120 0 5120 -5120 0 -5120 0 0
-5120z m5575 3545 c378 -49 912 -246 1151 -423 43 -32 117 -85 164 -118 94
-65 338 -304 440 -430 85 -106 192 -270 235 -359 27 -57 33 -81 28 -106 -5
-27 -4 -31 10 -26 11 4 20 -1 27 -13 8 -16 8 -18 -5 -14 -21 8 -19 -4 8 -56
23 -45 31 -69 62 -190 9 -36 21 -79 26 -96 5 -17 20 -97 34 -178 21 -122 25
-181 25 -339 0 -330 -41 -573 -145 -867 -45 -125 -222 -424 -355 -600 -118
-154 -367 -383 -570 -522 -114 -78 -135 -94 -233 -188 -63 -59 -167 -207 -167
-236 0 -6 -13 -42 -29 -80 -41 -98 -60 -194 -72 -362 -9 -135 -17 -194 -34
-248 -6 -18 -3 -20 30 -16 45 5 70 46 62 104 -3 21 -1 40 3 43 13 8 76 -51 90
-85 20 -48 8 -132 -25 -180 -52 -75 -136 -109 -384 -154 -245 -45 -338 -51
-806 -50 -525 1 -677 13 -909 70 -115 29 -178 59 -223 106 -41 42 -53 76 -53
145 0 60 23 110 63 138 31 22 37 19 37 -20 0 -39 24 -105 43 -117 19 -12 134
-45 222 -63 83 -17 419 -55 490 -55 l40 0 -2 47 c0 27 -6 154 -13 283 -14 272
-19 934 -7 946 4 5 12 2 17 -6 6 -10 9 -5 12 16 l3 29 20 -32 c25 -42 35 -42
36 0 1 32 1 32 11 -8 8 -34 3 -774 -7 -996 -5 -90 -7 -201 -6 -246 l1 -43 238
0 c286 0 718 37 895 76 l67 16 0 177 c0 314 26 434 150 683 21 43 46 88 54
100 27 39 210 218 222 218 7 0 30 15 53 32 22 18 60 46 85 61 110 68 436 388
546 535 29 39 58 68 63 65 6 -3 7 -1 3 6 -6 10 99 201 110 201 5 0 -7 -33 -17
-45 -15 -20 -70 -125 -65 -125 11 0 97 163 92 176 -3 8 -1 12 4 9 8 -5 45 65
139 268 17 37 31 83 31 102 0 19 4 35 10 35 5 0 7 6 4 14 -3 8 0 17 5 21 6 3
9 10 6 15 -7 12 20 116 40 157 32 63 39 193 26 443 -7 129 -15 248 -18 264 -3
16 -2 27 3 23 5 -3 8 12 6 34 -2 21 -7 39 -11 39 -3 0 -7 16 -8 36 -1 20 -5
44 -9 53 -4 9 -8 23 -9 31 -9 62 -61 207 -82 228 -7 7 -13 20 -13 28 0 8 -4
14 -10 14 -5 0 -10 6 -10 13 -1 6 -9 30 -19 51 -11 22 -16 46 -13 55 4 10 1
12 -7 6 -10 -5 -12 -2 -8 11 4 11 -1 30 -9 44 l-15 25 6 -35 5 -34 -20 22
c-11 11 -20 24 -20 29 0 4 -11 23 -24 42 -12 20 -49 76 -81 124 -106 162 -285
365 -451 508 -180 156 -244 199 -504 336 -99 53 -132 65 -345 132 -120 38
-172 50 -400 95 -128 25 -262 36 -439 36 -196 0 -334 -13 -476 -44 -58 -13
-127 -27 -153 -31 -27 -3 -59 -8 -70 -11 -91 -17 -136 -29 -175 -45 -25 -11
-47 -17 -49 -15 -7 7 -145 -44 -164 -60 -8 -8 -18 -14 -22 -14 -3 0 -34 -13
-69 -29 -35 -15 -72 -31 -82 -35 -10 -3 -16 -9 -13 -12 3 -3 14 -1 24 4 45 24
177 45 249 39 40 -4 74 -3 76 1 2 5 28 25 58 45 30 20 50 37 45 37 -19 0 50
32 120 55 158 53 386 71 509 39 81 -21 92 -31 63 -54 -15 -13 5 -8 65 16 230
90 440 80 670 -34 77 -38 102 -46 120 -39 31 12 215 2 258 -15 122 -46 342
-193 379 -253 31 -52 57 -68 109 -70 63 -1 113 -34 229 -150 97 -96 122 -138
153 -250 16 -58 19 -61 74 -91 80 -43 159 -124 201 -208 20 -39 30 -63 23 -53
-34 49 -36 48 -17 -2 14 -37 17 -57 10 -64 -14 -14 -42 12 -92 83 -52 73 -146
148 -222 175 l-62 23 -13 68 c-26 135 -31 145 -105 221 -76 79 -153 125 -265
158 -53 16 -65 25 -93 64 -37 55 -189 169 -189 143 0 -4 -4 -2 -8 4 -10 15
-96 58 -160 79 -55 17 -117 22 -212 15 -49 -4 -62 0 -120 34 -41 24 -93 44
-145 55 -93 21 -260 27 -279 12 -7 -6 -49 -17 -93 -25 -177 -31 -271 -111
-307 -260 -5 -20 -10 -26 -15 -17 -5 7 -13 -18 -20 -62 -14 -87 -41 -129 -115
-182 -57 -40 -100 -46 -116 -15 -12 22 6 44 80 100 l34 26 7 117 c6 99 11 125
37 179 16 35 48 84 71 111 34 37 39 47 24 48 -10 0 -60 0 -111 -1 -88 -1 -117
-7 -287 -54 -77 -22 -163 -66 -227 -116 -39 -32 -55 -39 -72 -33 -46 17 -189
8 -256 -16 -192 -67 -298 -152 -359 -283 l-39 -84 -60 -17 c-79 -22 -117 -56
-159 -143 -30 -62 -41 -75 -85 -99 -91 -50 -171 -136 -222 -238 -25 -51 -53
-118 -63 -149 -9 -31 -20 -55 -24 -52 -9 5 -19 -38 -21 -98 -1 -26 -5 -45 -10
-42 -4 3 -8 -13 -8 -35 0 -50 -12 -52 -34 -7 -39 82 -6 297 70 454 51 106 153
223 229 263 32 17 48 33 55 55 29 86 131 185 207 200 26 5 38 18 68 69 35 60
136 184 152 187 4 1 17 13 28 27 l20 26 -50 -29 c-86 -49 -225 -161 -350 -281
-66 -63 -123 -115 -127 -115 -5 0 -8 -6 -8 -14 0 -8 -6 -21 -13 -28 -27 -28
-119 -149 -171 -224 -100 -144 -147 -226 -188 -328 -22 -56 -48 -119 -58 -141
-35 -78 -88 -299 -100 -417 -11 -109 -12 -383 -2 -402 3 -4 6 -29 8 -55 4 -53
37 -230 53 -279 5 -18 10 -35 10 -37 -1 -58 106 -351 170 -468 103 -191 191
-327 211 -327 5 0 10 -4 10 -10 0 -16 64 -99 77 -99 6 -1 20 -12 31 -26 11
-14 23 -25 27 -25 4 0 16 -10 27 -23 107 -123 161 -182 219 -231 153 -132 459
-430 459 -446 0 -6 5 -10 11 -10 42 0 146 -214 188 -385 34 -138 63 -455 42
-455 -6 0 -11 -12 -11 -27 0 -22 2 -25 10 -13 7 11 10 2 10 -33 0 -47 0 -47
-27 -41 -16 4 -33 12 -40 18 -7 7 -15 81 -22 191 -6 99 -20 225 -32 279 -27
131 -110 315 -182 404 -49 61 -201 204 -337 318 -330 277 -551 540 -719 855
-200 376 -303 814 -288 1229 6 153 32 358 62 475 18 74 18 87 0 55 -19 -34
-18 -23 6 65 92 338 402 770 750 1047 202 161 537 338 809 428 122 40 365 98
500 120 243 39 595 41 875 5z m-142 -362 c-7 -2 -19 -2 -25 0 -7 3 -2 5 12 5
14 0 19 -2 13 -5z m-137 -150 c15 -20 18 -71 6 -90 -23 -36 -113 -38 -132 -3
-14 26 -12 82 3 101 24 32 96 27 123 -8z m484 -45 c105 -48 145 -109 103 -158
-22 -26 -45 -25 -69 1 -34 38 -93 59 -171 59 -98 0 -171 -28 -227 -87 l-44
-45 -26 18 c-61 45 -4 146 119 211 49 26 85 32 175 29 65 -2 98 -9 140 -28z
m431 -32 c45 -19 71 -49 67 -78 -3 -20 -9 -23 -50 -26 -25 -2 -52 -10 -58 -18
-7 -8 -16 -53 -21 -102 -5 -48 -14 -100 -21 -117 -16 -44 -57 -95 -74 -95 -8
0 -26 -7 -39 -16 -41 -27 -107 -43 -132 -31 -47 21 -34 77 19 77 26 0 98 69
115 109 11 25 13 53 8 106 -10 99 15 157 77 185 52 24 65 24 109 6z m-1521
-15 c5 -11 10 -31 10 -44 0 -25 -4 -29 -140 -115 -36 -23 -88 -63 -116 -89
-45 -42 -55 -58 -73 -123 -12 -41 -29 -89 -37 -106 -8 -16 -21 -52 -28 -80
l-13 -49 -14 50 c-7 28 -15 42 -17 32 -8 -39 -22 -1 -22 61 0 188 117 374 285
454 74 35 149 39 165 9z m-541 -7 c64 -13 51 -98 -16 -109 -98 -16 -148 -30
-164 -46 -10 -10 -20 -15 -23 -11 -3 3 -6 0 -6 -7 0 -7 -4 -9 -10 -6 -5 3 -10
1 -10 -4 0 -6 -6 -11 -14 -11 -35 0 -136 -164 -136 -221 0 -16 -4 -19 -17 -14
-10 4 -25 8 -33 10 -12 2 -15 18 -13 81 2 81 8 100 56 172 76 114 256 192 386
166z m2488 -239 c29 -15 64 -40 79 -56 32 -33 38 -76 12 -85 -16 -5 -57 11
-68 26 -3 4 -27 17 -54 29 -59 26 -156 30 -156 6 0 -26 -45 -17 -74 16 -27 30
-27 31 -9 51 50 57 179 63 270 13z m-1324 -56 c100 -14 135 -27 171 -60 17
-16 56 -48 86 -72 58 -45 125 -126 134 -161 4 -16 0 -14 -20 9 l-25 30 19 -40
c11 -22 25 -57 30 -79 11 -37 10 -38 -8 -21 -13 11 -20 13 -25 5 -4 -7 -20 7
-40 37 -132 196 -376 270 -579 175 -77 -36 -132 -99 -166 -193 -28 -78 -26
-75 -44 -57 -21 21 -29 78 -16 112 14 39 5 45 -15 9 l-16 -28 6 30 c16 75 124
205 217 259 40 23 145 52 201 55 10 1 51 -4 90 -10z m192 -67 c-3 -3 -11 0
-18 7 -9 10 -8 11 6 5 10 -3 15 -9 12 -12z m-1378 -39 c12 -8 27 -30 33 -49
23 -68 -37 -137 -119 -137 -44 0 -91 49 -91 94 0 94 96 144 177 92z m2524 -58
c39 -14 105 -58 98 -67 -2 -2 10 -25 25 -51 24 -41 27 -52 18 -73 -7 -13 -15
-24 -20 -24 -5 0 -27 16 -51 36 -23 20 -45 34 -48 31 -3 -4 -18 0 -34 8 -36
19 -100 19 -145 0 -35 -14 -37 -15 -53 -15 -5 0 -19 -16 -31 -35 -12 -19 -28
-35 -35 -35 -21 0 -39 38 -26 54 7 9 6 18 -4 33 -13 19 -12 24 7 48 23 30 111
90 143 98 41 10 113 6 156 -8z m-2901 -124 c17 -33 11 -71 -15 -96 -30 -30
-54 -31 -89 -4 -34 27 -36 81 -4 103 33 23 95 21 108 -3z m-271 -85 c14 -17
16 -52 6 -128 l-8 -57 52 -51 c34 -33 60 -50 76 -50 29 0 32 -12 9 -34 -33
-33 -118 -7 -186 57 -21 19 -38 30 -39 23 -2 -25 -38 71 -39 102 0 27 -4 32
-24 32 -44 0 -100 -99 -98 -171 1 -25 -2 -38 -8 -34 -6 3 -10 -1 -10 -10 0 -9
-4 -13 -10 -10 -5 3 -10 1 -10 -6 0 -28 -20 8 -33 60 -12 48 -15 51 -22 30 -8
-24 -8 -24 -12 6 -3 16 3 57 13 90 44 145 108 189 185 125 l36 -29 33 34 c36
37 70 45 89 21z m1862 -26 c19 -5 48 -23 64 -40 23 -24 30 -41 33 -88 4 -51 1
-62 -22 -89 -49 -58 -134 -67 -196 -23 -108 77 -62 237 70 249 8 0 31 -4 51
-9z m842 -37 c15 -8 33 -11 39 -7 7 5 8 3 3 -6 -6 -10 -4 -12 8 -7 9 3 19 1
23 -5 4 -7 3 -8 -4 -4 -29 18 -8 -14 28 -43 22 -18 54 -56 70 -84 34 -59 36
-69 15 -61 -12 5 -14 0 -9 -23 4 -19 1 -33 -9 -41 -12 -10 -21 -2 -51 43 -20
31 -57 70 -82 88 -47 33 -120 64 -109 46 6 -9 -3 -8 -75 11 -49 12 -31 103 22
113 34 6 99 -4 131 -20z m988 -174 c19 -6 43 -14 54 -19 11 -4 36 -14 54 -21
45 -17 149 -120 186 -183 39 -67 77 -174 65 -181 -6 -4 -8 -37 -4 -83 3 -42 1
-95 -4 -117 -9 -40 -9 -39 -16 34 -5 43 -12 68 -16 61 -5 -7 -6 -20 -4 -29 3
-9 1 -7 -4 4 -5 11 -17 53 -27 94 -23 98 -49 145 -117 214 -81 82 -168 121
-268 122 -62 0 -85 -5 -130 -28 -30 -15 -66 -42 -80 -61 -30 -42 -53 -50 -74
-27 -47 51 15 159 119 207 41 20 67 24 141 24 50 0 106 -5 125 -11z m-3063
-97 c43 -23 56 -36 25 -25 -10 3 6 -16 35 -42 29 -26 57 -56 64 -68 11 -22 11
-22 -11 -3 -11 11 -21 14 -21 8 0 -6 4 -13 9 -17 12 -7 10 -85 -1 -85 -4 0
-29 21 -55 46 -84 81 -174 104 -259 65 -38 -17 -113 -93 -115 -115 -1 -16 -63
-99 -77 -104 -12 -4 -18 37 -14 108 2 33 1 34 -13 16 -23 -30 -18 -1 10 54 34
67 122 154 177 174 62 23 189 16 246 -12z m-1501 -134 c-3 -8 -6 -5 -6 6 -1
11 2 17 5 13 3 -3 4 -12 1 -19z m-10 -40 c-3 -8 -6 -5 -6 6 -1 11 2 17 5 13 3
-3 4 -12 1 -19z m740 -25 c17 -7 43 -55 43 -81 0 -30 -22 -42 -88 -46 -123 -7
-223 -89 -222 -183 1 -71 59 -198 122 -265 24 -27 42 -48 39 -48 -3 0 8 -8 24
-18 40 -25 119 -50 190 -62 64 -10 91 -29 81 -56 -6 -15 -18 -16 -104 -11 -53
3 -116 12 -139 21 -136 50 -244 139 -296 246 -30 60 -32 72 -32 170 0 97 2
109 29 158 59 106 126 165 208 182 41 8 114 5 145 -7z m1699 -12 c-24 -46 -85
-92 -186 -140 -78 -37 -108 -46 -172 -51 -71 -5 -80 -8 -113 -40 -20 -19 -38
-45 -41 -57 -4 -16 -12 -21 -32 -20 -25 2 -27 6 -30 55 -4 62 14 93 88 151 47
37 51 38 152 45 56 4 124 14 151 22 26 9 53 14 60 11 6 -2 26 3 42 12 24 13
78 36 93 40 1 1 -4 -12 -12 -28z m1849 -76 c31 -30 32 -68 3 -95 -66 -61 -164
24 -112 98 22 31 77 30 109 -3z m-680 -5 c14 -15 19 -38 20 -97 1 -43 -3 -84
-8 -91 -5 -7 -7 -28 -4 -47 12 -76 -28 -26 -73 92 -35 91 -37 116 -10 143 25
25 52 25 75 0z m460 -178 l0 -137 -43 -87 c-23 -49 -47 -88 -53 -88 -6 0 -8
-4 -4 -9 3 -5 -4 -12 -15 -16 -11 -3 -20 -10 -20 -15 0 -4 -22 -20 -50 -34
-76 -40 -130 -32 -130 18 0 14 18 33 51 56 118 80 179 189 194 344 3 38 9 74
13 80 4 6 7 13 8 16 0 3 4 13 9 23 7 17 9 17 24 2 13 -13 16 -40 16 -153z
m-3777 135 c20 -21 21 -35 26 -247 4 -197 7 -233 26 -290 36 -107 62 -147 94
-141 5 1 6 -5 2 -14 -3 -9 -2 -14 3 -11 5 3 18 -9 29 -27 20 -35 130 -123 172
-138 14 -5 41 -18 60 -28 19 -10 56 -22 82 -25 89 -13 127 -85 72 -137 -68
-64 -300 6 -440 134 -208 191 -286 436 -257 802 l8 99 40 23 c50 28 57 28 83
0z m780 -68 c-41 -79 -107 -121 -210 -134 -49 -5 -58 -4 -67 13 -13 24 11 62
40 62 30 0 129 48 164 78 17 15 24 20 18 12 -7 -8 -13 -23 -13 -34 0 -18 1
-18 18 -3 10 10 24 17 30 17 6 0 14 10 18 23 6 16 9 18 11 6 2 -8 -2 -27 -9
-40z m2051 -19 c11 -5 53 -10 94 -10 86 0 133 -13 140 -40 9 -34 -18 -43 -163
-55 -247 -21 -262 -23 -329 -56 -43 -21 -88 -55 -128 -97 -60 -61 -67 -73 -87
-166 -8 -33 -14 -29 -34 22 -17 42 -20 94 -8 136 7 21 6 27 -3 22 -20 -13 -12
4 30 64 73 104 186 174 314 194 45 6 152 -2 174 -14z m1569 -83 c19 -15 15
-72 -8 -92 -25 -23 -80 -22 -97 1 -17 23 -17 78 0 92 25 21 77 21 105 -1z
m-3023 -171 c22 -10 50 -23 63 -29 15 -7 22 -19 22 -38 l0 -27 -100 -1 c-84 0
-111 -5 -168 -27 -189 -76 -316 -224 -357 -419 -17 -80 -19 -259 -4 -325 13
-59 40 -130 48 -127 3 1 67 -59 141 -134 111 -112 201 -188 230 -194 3 -1 28
-12 55 -25 75 -35 150 -52 257 -57 82 -4 103 -1 142 16 25 12 53 21 63 21 43
0 193 95 281 177 48 44 74 53 133 44 42 -7 66 -5 113 11 83 26 209 80 218 93
4 5 8 6 8 2 0 -12 69 41 108 83 49 51 122 147 122 159 0 22 147 160 200 186
92 46 143 56 364 65 220 10 326 28 431 75 62 27 162 118 206 188 19 28 39 57
45 62 7 6 20 27 29 48 23 49 39 43 43 -16 3 -48 -14 -111 -48 -175 -28 -53
-155 -181 -182 -183 -7 -1 -2 -4 12 -8 l25 -7 -33 -18 c-18 -9 -38 -14 -44
-10 -6 4 -8 3 -5 -4 8 -11 -97 -54 -178 -73 -27 -6 -153 -14 -280 -19 -126 -4
-244 -13 -262 -18 -84 -27 -139 -87 -244 -266 -40 -69 -134 -168 -202 -213
-133 -88 -328 -132 -375 -85 l-21 21 -54 -78 c-98 -138 -204 -212 -377 -261
-210 -59 -515 -26 -685 75 -356 212 -531 609 -440 995 2 8 4 17 5 20 1 3 2 9
1 13 -1 4 5 15 14 23 8 9 15 22 15 30 0 23 75 166 115 220 130 173 245 236
420 231 61 -2 103 -8 130 -21z m3320 -90 c23 -23 24 -30 22 -138 -2 -104 -5
-119 -34 -181 -51 -108 -170 -207 -249 -207 -27 0 -36 -10 -86 -87 -121 -187
-227 -256 -444 -288 -167 -25 -246 -4 -230 59 10 39 44 55 149 71 53 8 112 21
132 29 19 8 35 13 35 11 0 -3 17 5 38 17 20 11 54 30 75 40 50 27 98 84 146
177 38 73 67 101 104 101 21 0 131 62 150 84 37 45 62 124 82 258 6 37 43 78
72 78 8 0 25 -11 38 -24z m-1431 -32 c9 -3 16 -16 16 -29 0 -28 -33 -35 -181
-35 -111 0 -148 12 -136 43 5 13 25 17 94 20 48 1 111 4 140 5 28 1 58 -1 67
-4z m-533 -39 c38 -20 69 -71 69 -114 0 -27 -9 -42 -42 -74 -37 -35 -45 -38
-79 -33 -21 3 -49 11 -61 17 -81 37 -79 157 2 200 42 23 72 24 111 4z m1701
-28 c15 -24 9 -139 -9 -159 -20 -22 -66 -24 -87 -2 -19 18 -22 130 -5 167 10
23 14 24 52 15 23 -5 45 -14 49 -21z m-2321 -27 c27 -15 24 -32 -13 -66 -49
-45 -128 -67 -304 -84 -50 -5 -116 -19 -145 -30 -62 -25 -128 -84 -161 -146
-13 -24 -26 -44 -29 -44 -19 0 -31 33 -25 67 4 21 8 48 9 60 1 11 6 19 11 15
5 -3 6 2 3 12 -9 23 64 101 135 143 81 49 153 64 316 67 78 2 146 6 149 10 9
9 32 7 54 -4z m2676 -47 c-3 -10 -5 -2 -5 17 0 19 2 27 5 18 2 -10 2 -26 0
-35z m-2269 -275 c5 -27 -97 -127 -162 -160 -88 -45 -148 -58 -264 -58 -107 0
-144 -10 -173 -47 -11 -15 -10 -15 11 2 l25 20 -24 -27 c-13 -15 -29 -25 -34
-21 -6 4 -8 0 -4 -10 3 -9 2 -16 -4 -14 -5 1 -21 -17 -36 -40 -14 -24 -23 -43
-20 -43 3 0 15 16 27 36 12 19 25 33 28 29 9 -9 -87 -142 -124 -170 -19 -14
-60 -38 -92 -53 -108 -49 -280 -29 -379 45 -26 19 -33 31 -33 59 0 21 8 43 20
56 l19 21 88 -32 c98 -34 145 -38 219 -16 64 19 102 54 181 170 73 107 123
129 323 143 156 10 221 30 299 89 19 15 43 28 53 28 10 1 21 5 25 9 10 10 28
1 31 -16z m-1300 -72 c33 -18 62 -66 62 -102 0 -46 -38 -97 -86 -113 -81 -28
-144 16 -144 101 0 28 7 59 16 74 33 49 103 68 152 40z m3386 -22 c26 -25 19
-56 -34 -161 -59 -117 -119 -196 -198 -259 -56 -45 -203 -124 -230 -124 -7 0
-22 -5 -33 -10 -19 -10 -19 -11 3 -41 46 -62 18 -158 -86 -295 -84 -112 -186
-183 -336 -236 -167 -58 -383 -37 -494 47 -21 16 -59 38 -85 50 -47 22 -121
80 -121 95 0 4 35 -1 77 -11 133 -30 102 -9 -50 35 -43 13 -88 31 -100 42 -22
19 -22 19 -1 22 11 2 128 -22 260 -52 230 -53 345 -74 334 -63 -3 3 -84 26
-180 52 -283 76 -295 80 -282 102 6 10 43 6 157 -17 179 -35 300 -50 375 -49
30 1 44 3 30 5 -14 3 -105 21 -202 41 -153 31 -176 38 -166 51 13 15 32 14
208 -8 80 -10 307 -14 298 -5 -3 3 -57 10 -119 16 -126 11 -251 36 -190 38 22
1 32 5 28 14 -3 9 34 12 167 12 207 0 249 11 329 86 l52 49 -75 -5 c-41 -3
-201 -10 -355 -15 -154 -6 -396 -15 -538 -20 -152 -6 -267 -6 -281 -1 -28 11
-41 60 -25 94 19 43 55 54 189 61 279 15 663 37 790 46 75 6 176 10 225 10 50
0 113 6 141 14 132 35 247 131 339 281 68 112 81 125 126 125 21 0 45 -7 53
-16z m-2537 -150 c-3 -3 -12 -4 -19 -1 -8 3 -5 6 6 6 11 1 17 -2 13 -5z m120
0 c-3 -3 -12 -4 -19 -1 -8 3 -5 6 6 6 11 1 17 -2 13 -5z m1593 -524 c-25 -4
-49 -4 -54 1 -6 5 12 8 45 8 l54 -2 -45 -7z m-1164 -81 c132 -90 523 -390 552
-423 36 -41 42 -84 15 -108 -29 -25 -52 -29 -87 -14 -37 15 -550 398 -608 454
-45 43 -50 81 -14 117 20 20 29 22 59 16 19 -5 56 -23 83 -42z m-709 -301 c30
-33 114 -193 118 -224 4 -36 -17 -13 -39 45 -27 69 -92 158 -121 165 -35 9
-66 -1 -87 -28 -12 -14 -18 -17 -18 -7 0 8 12 28 27 43 35 36 90 39 120 6z
m831 -38 c17 -11 32 -27 32 -36 0 -13 -6 -11 -26 10 -57 56 -105 22 -179 -126
-46 -92 -59 -142 -31 -119 12 10 14 8 10 -11 -5 -20 -4 -21 6 -5 14 22 30 13
30 -16 1 -21 1 -21 16 3 13 22 14 -24 9 -450 -4 -261 -10 -549 -13 -640 l-7
-165 -36 -2 -37 -3 -8 397 c-5 219 -9 511 -9 648 0 239 1 253 24 320 26 73
100 199 123 208 27 11 64 6 96 -13z m-1472 -1773 c3 -17 15 -48 26 -69 23 -44
22 -44 163 -23 113 16 273 19 295 5 12 -7 11 -10 -5 -16 -49 -17 -105 -43
-105 -50 0 -3 6 -4 13 -1 8 3 19 2 26 -3 8 -4 -19 -15 -66 -25 -139 -32 -135
-41 12 -26 122 13 122 -1 0 -25 -60 -12 -165 -34 -232 -48 -142 -30 -185 -32
-223 -10 -83 50 -76 155 14 203 22 12 26 21 26 58 0 85 39 106 56 30z m2054
41 c0 -47 23 -87 58 -105 73 -38 89 -120 35 -190 -39 -50 -78 -60 -808 -198
-248 -47 -793 -153 -1117 -217 l-256 -51 -38 19 c-45 22 -84 75 -84 113 0 37
33 86 68 100 28 12 30 16 30 63 1 58 25 98 38 62 4 -10 23 -47 43 -82 34 -59
38 -62 66 -57 300 57 980 188 1210 234 165 32 356 69 425 81 69 12 141 26 162
31 48 12 94 65 103 120 4 24 14 54 22 66 16 25 43 31 43 11z m10 -437 c5 -11
10 -35 10 -54 0 -26 5 -36 25 -45 32 -15 65 -68 65 -105 0 -57 -51 -120 -111
-138 -19 -5 -223 -48 -454 -95 -457 -92 -514 -104 -835 -163 -118 -22 -309
-59 -425 -82 -115 -23 -230 -42 -255 -42 -53 0 -103 23 -127 60 -25 38 -36
217 -16 256 7 15 18 27 22 27 5 0 21 -24 36 -52 15 -29 37 -66 49 -81 l23 -28
249 50 c137 27 292 57 344 66 214 36 981 185 1143 222 113 25 120 29 143 62
13 20 31 58 40 86 25 77 52 97 74 56z m29 -461 c18 0 7 -40 -31 -117 -48 -98
-106 -143 -186 -143 -12 0 -64 -9 -115 -20 -97 -21 -268 -51 -557 -101 -96
-16 -188 -33 -205 -39 -41 -12 -279 -46 -463 -65 -169 -18 -182 -15 -182 36 0
22 6 32 23 38 29 11 292 58 562 101 298 47 595 98 730 125 66 13 142 27 169
31 53 7 56 10 119 104 45 68 79 88 108 63 8 -7 21 -13 28 -13z m-581 -511 c-2
-29 -9 -45 -22 -53 -11 -6 -32 -25 -47 -42 -15 -16 -49 -42 -76 -56 -122 -66
-573 -61 -691 8 -48 28 -132 101 -132 114 0 22 78 31 350 41 162 5 320 14 350
18 30 5 104 9 163 10 l108 1 -3 -41z"/>
<path d="M3749 8153 c-13 -16 -12 -17 4 -4 9 7 17 15 17 17 0 8 -8 3 -21 -13z"/>
<path d="M7260 7534 c0 -17 17 -36 24 -26 3 5 -1 15 -9 22 -8 7 -15 9 -15 4z"/>
<path d="M7682 6520 c0 -14 2 -19 5 -12 2 6 2 18 0 25 -3 6 -5 1 -5 -13z"/>
<path d="M7692 6345 c0 -16 2 -22 5 -12 2 9 2 23 0 30 -3 6 -5 -1 -5 -18z"/>
<path d="M6070 7670 c-6 -11 -8 -20 -6 -20 3 0 10 9 16 20 6 11 8 20 6 20 -3
0 -10 -9 -16 -20z"/>
<path d="M3370 7198 c0 -9 5 -20 10 -23 13 -8 13 5 0 25 -8 13 -10 13 -10 -2z"/>
<path d="M6056 4770 c5 -5 32 -12 59 -15 l50 -6 -34 15 c-38 18 -91 22 -75 6z"/>
<path d="M4370 1820 c-20 -6 -21 -8 -5 -8 11 0 29 3 40 8 25 11 -1 11 -35 0z"/>
</g>
</svg>
